<?xml version="1.0" standalone="no"?><svg xmlns="http://www.w3.org/2000/svg" viewBox="0 0 1440 320"><path fill="#000000" fill-opacity="1" d="M0,192L34.3,202.7C68.6,213,137,235,206,240C274.3,245,343,235,411,208C480,181,549,139,617,144C685.7,149,754,203,823,240C891.4,277,960,299,1029,298.7C1097.1,299,1166,277,1234,250.7C1302.9,224,1371,192,1406,176L1440,160L1440,320L1405.7,320C1371.4,320,1303,320,1234,320C1165.7,320,1097,320,1029,320C960,320,891,320,823,320C754.3,320,686,320,617,320C548.6,320,480,320,411,320C342.9,320,274,320,206,320C137.1,320,69,320,34,320L0,320Z"></path></svg>